# xmcd
#
# Track frame offsets:
#	150
#	14100
#	24497
#	39235
#	51460
#	64315
#	83302
#	102038
#	115670
#	129159
#	141924
#	155358
#	173435
#	190802
#	203101
#	218969
#	234777
#	246914
#	259776
#	273264
#	287215
#	315608
#	327752
#	344085
#
# Disc length: 4744 seconds
#
# Revision: 2
# Processed by: cddbd v1.5.2PL0 Copyright (c) Steve Scherf et al.
# Submitted via: EZCDAudioConverter 7.0.0.1
#
DISCID=52128618
DTITLE=Various Artist - Simply The Best Platinum Soul
DYEAR=2003
DGENRE=Soul
TTITLE0=Wilson Pickett - Mystang Sally
TTITLE1=Aretha Franklin - Think
TTITLE2=Al Green - Let's Stay Together
TTITLE3=New York City - I'm Doin' Fine Now
TTITLE4=Booker T and The MG's - Green Onions
TTITLE5=Spinners - Could It Be I'm Falling In Love
TTITLE6=Blue Magic - Sideshow
TTITLE7=Otis Redding and Carla Thomas - Tramp
TTITLE8=The Chi-Lites - Are You My Woman ?
TTITLE9=Ray Charles - I Got A Woman
TTITLE10=Ben E. King - Stand By Me
TTITLE11=Bloodstone - Natural High
TTITLE12=Charles Wright and Co - Express Yourself
TTITLE13=Solomon Burke - Everybody Needs Somebody To Love
TTITLE14=Soul Clan - Soul Meeting
TTITLE15=Lorraine Ellison - Stay With Me
TTITLE16=Drifters - Under The Boardwalk
TTITLE17=Percy Sledge - When A Man Loves A Woman
TTITLE18=Clarence Carter - Patches
TTITLE19=Begining Of The End - Funky Nassau
TTITLE20=Donny Hathaway - The Ghetto
TTITLE21=Otis Redding - Sittin' On The Dock Of The Bay
TTITLE22=Brook Benton - Rainy Night In Gergia
TTITLE23=Sam and Dave - Soul Man
EXTD=
EXTT0=
EXTT1=
EXTT2=
EXTT3=
EXTT4=
EXTT5=
EXTT6=
EXTT7=
EXTT8=
EXTT9=
EXTT10=
EXTT11=
EXTT12=
EXTT13=
EXTT14=
EXTT15=
EXTT16=
EXTT17=
EXTT18=
EXTT19=
EXTT20=
EXTT21=
EXTT22=
EXTT23=
PLAYORDER=
